#tb 0: 1/30
#media_type 0: video
#codec_id 0: rawvideo
#dimensions 0: 112x182
#sar 0: 0/1
0,          0,          0,        1,    30576, 0xcdc29b3d
0,          1,          1,        1,    30576, 0xcdc29b3d
0,          2,          2,        1,    30576, 0xcdc29b3d
0,          3,          3,        1,    30576, 0xcdc29b3d
0,          4,          4,        1,    30576, 0xcdc29b3d
0,          5,          5,        1,    30576, 0xcdc29b3d
0,          6,          6,        1,    30576, 0x5c83656c
0,          7,          7,        1,    30576, 0x5c83656c
0,          8,          8,        1,    30576, 0x5c83656c
0,          9,          9,        1,    30576, 0x5c83656c
0,         10,         10,        1,    30576, 0x5c83656c
0,         11,         11,        1,    30576, 0x5c83656c
0,         12,         12,        1,    30576, 0x5c83656c
0,         13,         13,        1,    30576, 0x26b67f83
0,         14,         14,        1,    30576, 0x26b67f83
0,         15,         15,        1,    30576, 0x26b67f83
0,         16,         16,        1,    30576, 0x26b67f83
0,         17,         17,        1,    30576, 0x26b67f83
0,         18,         18,        1,    30576, 0x26b67f83
0,         19,         19,        1,    30576, 0x26b67f83
0,         20,         20,        1,    30576, 0x26b67f83
0,         21,         21,        1,    30576, 0x26b67f83
0,         22,         22,        1,    30576, 0x26b67f83
0,         23,         23,        1,    30576, 0x26b67f83
0,         24,         24,        1,    30576, 0x26b67f83
0,         25,         25,        1,    30576, 0x26b67f83
0,         26,         26,        1,    30576, 0x26b67f83
0,         27,         27,        1,    30576, 0x26b67f83
0,         28,         28,        1,    30576, 0x26b67f83
0,         29,         29,        1,    30576, 0x26b67f83
0,         30,         30,        1,    30576, 0x26b67f83
0,         31,         31,        1,    30576, 0x26b67f83
0,         32,         32,        1,    30576, 0x26b67f83
0,         33,         33,        1,    30576, 0x26b67f83
0,         34,         34,        1,    30576, 0x26b67f83
0,         35,         35,        1,    30576, 0x26b67f83
0,         36,         36,        1,    30576, 0x26b67f83
0,         37,         37,        1,    30576, 0x26b67f83
0,         38,         38,        1,    30576, 0x26b67f83
0,         39,         39,        1,    30576, 0x26b67f83
0,         40,         40,        1,    30576, 0x26b67f83
0,         41,         41,        1,    30576, 0x26b67f83
0,         42,         42,        1,    30576, 0x26b67f83
0,         43,         43,        1,    30576, 0x26b67f83
0,         44,         44,        1,    30576, 0x26b67f83
0,         45,         45,        1,    30576, 0x26b67f83
0,         46,         46,        1,    30576, 0x26b67f83
0,         47,         47,        1,    30576, 0x26b67f83
0,         48,         48,        1,    30576, 0x26b67f83
0,         49,         49,        1,    30576, 0x26b67f83
0,         50,         50,        1,    30576, 0x26b67f83
0,         51,         51,        1,    30576, 0x26b67f83
0,         52,         52,        1,    30576, 0x26b67f83
0,         53,         53,        1,    30576, 0x26b67f83
0,         54,         54,        1,    30576, 0x26b67f83
0,         55,         55,        1,    30576, 0x26b67f83
0,         56,         56,        1,    30576, 0x26b67f83
0,         57,         57,        1,    30576, 0x26b67f83
0,         58,         58,        1,    30576, 0x26b67f83
0,         59,         59,        1,    30576, 0x26b67f83
0,         60,         60,        1,    30576, 0x26b67f83
0,         61,         61,        1,    30576, 0x26b67f83
0,         62,         62,        1,    30576, 0x26b67f83
0,         63,         63,        1,    30576, 0x26b67f83
0,         64,         64,        1,    30576, 0x26b67f83
0,         65,         65,        1,    30576, 0x26b67f83
0,         66,         66,        1,    30576, 0x26b67f83
0,         67,         67,        1,    30576, 0x26b67f83
0,         68,         68,        1,    30576, 0x26b67f83
0,         69,         69,        1,    30576, 0x26b67f83
0,         70,         70,        1,    30576, 0x26b67f83
0,         71,         71,        1,    30576, 0x26b67f83
0,         72,         72,        1,    30576, 0x26b67f83
0,         73,         73,        1,    30576, 0xa2fcd06f
0,         74,         74,        1,    30576, 0xa2fcd06f
0,         75,         75,        1,    30576, 0xa2fcd06f
0,         76,         76,        1,    30576, 0xa2fcd06f
0,         77,         77,        1,    30576, 0xa2fcd06f
0,         78,         78,        1,    30576, 0xa2fcd06f
0,         79,         79,        1,    30576, 0xa2fcd06f
0,         80,         80,        1,    30576, 0xa2fcd06f
0,         81,         81,        1,    30576, 0xd4150aad
